<svg width="69" height="21" viewBox="0 0 69 21" fill="none" xmlns="http://www.w3.org/2000/svg">
<path d="M68.5932 9.68794C68.5932 10.6959 68.0519 11.5359 66.9692 12.2079C65.8866 12.8613 64.5146 13.1879 62.8532 13.1879C62.2559 13.1879 61.5932 13.1413 60.8652 13.0479C60.1746 14.4853 59.8292 15.8199 59.8292 17.0519C59.8292 18.7133 60.5666 19.5439 62.0412 19.5439C63.1799 19.5439 64.2906 18.9466 65.3732 17.7519C65.6159 17.4906 65.7746 17.3599 65.8492 17.3599C65.9426 17.3599 65.9892 17.4066 65.9892 17.4999C65.9892 17.9293 65.5506 18.4613 64.6732 19.0959C63.6652 19.8239 62.6199 20.1879 61.5372 20.1879C60.3239 20.1879 59.3252 19.8333 58.5412 19.1239C57.7572 18.4146 57.3652 17.5186 57.3652 16.4359C57.3652 14.3453 58.5039 12.3199 60.7812 10.3599C62.7786 8.6426 64.5612 7.78394 66.1292 7.78394C67.7719 7.78394 68.5932 8.4186 68.5932 9.68794ZM66.6052 9.21194C66.6052 8.63327 66.3159 8.34394 65.7372 8.34394C65.1399 8.34394 64.5519 8.56793 63.9732 9.01593C62.9279 9.83727 61.9666 11.0599 61.0892 12.6839C61.3132 12.7026 61.5652 12.7119 61.8452 12.7119C62.8906 12.7119 63.9079 12.3946 64.8972 11.7599C66.0359 11.0506 66.6052 10.2013 66.6052 9.21194Z" fill="black"/>
<path d="M60.272 0.223999C60.272 0.261333 60.2253 0.392 60.132 0.615999C60.076 0.765333 59.9826 0.989333 59.852 1.288L53.58 16.604C53.1133 17.7427 52.88 18.48 52.88 18.816C52.88 19.32 53.216 19.572 53.888 19.572C54.56 19.572 55.232 19.18 55.904 18.396C56.184 18.06 56.3613 17.892 56.436 17.892C56.5666 17.892 56.632 17.9573 56.632 18.088C56.632 18.3307 56.324 18.7227 55.708 19.264C54.9986 19.8987 54.084 20.216 52.964 20.216C51.4333 20.216 50.668 19.6467 50.668 18.508C50.668 18.1347 50.9013 17.3787 51.368 16.24L57.64 0.952C57.696 0.84 57.724 0.774666 57.724 0.755999C57.724 0.587999 57.5466 0.503999 57.192 0.503999C56.3706 0.503999 55.96 0.429332 55.96 0.28C55.96 0.167999 56.044 0.111999 56.212 0.111999C56.38 0.111999 56.632 0.121333 56.968 0.14C57.3226 0.158667 57.584 0.168 57.752 0.168C58.5546 0.168 59.152 0.130667 59.544 0.0559998C59.7493 0.0186669 59.8893 0 59.964 0C60.1693 0 60.272 0.0746665 60.272 0.223999Z" fill="black"/>
<path d="M50.5481 7.89595C50.5481 7.95195 50.4735 8.14795 50.3241 8.48395L46.6281 16.884C46.2735 17.6866 46.0961 18.3026 46.0961 18.732C46.0961 19.2173 46.3388 19.46 46.8241 19.46C47.5521 19.46 48.2801 18.9653 49.0081 17.976C49.1575 17.7706 49.2695 17.668 49.3441 17.668C49.4188 17.668 49.4561 17.7053 49.4561 17.78C49.4561 17.9853 49.2508 18.312 48.8401 18.76C48.0188 19.6373 47.0388 20.076 45.9001 20.076C45.3215 20.076 44.8455 19.936 44.4721 19.656C44.1175 19.376 43.9401 19.012 43.9401 18.564C43.9401 18.284 44.0055 17.9573 44.1361 17.584C42.9601 19.32 41.5975 20.188 40.0481 20.188C39.0775 20.188 38.2841 19.88 37.6681 19.264C37.0521 18.6293 36.7441 17.8266 36.7441 16.856C36.7441 15.792 37.0988 14.6253 37.8081 13.356C38.5175 12.0866 39.4601 10.9293 40.6361 9.88395C42.2415 8.46528 43.7161 7.75595 45.0601 7.75595C46.4601 7.75595 47.2441 8.42795 47.4121 9.77195L48.1121 8.28795C48.2615 7.98928 48.3921 7.83995 48.5041 7.83995C48.5415 7.83995 48.6535 7.85862 48.8401 7.89595C49.0268 7.93328 49.1575 7.95195 49.2321 7.95195C49.6428 7.95195 49.9601 7.89595 50.1841 7.78395C50.2588 7.72795 50.3241 7.69995 50.3801 7.69995C50.4921 7.69995 50.5481 7.76528 50.5481 7.89595ZM47.0201 10.276C47.0201 9.69728 46.8428 9.23062 46.4881 8.87595C46.1521 8.52128 45.7135 8.34395 45.1721 8.34395C44.2388 8.34395 43.3428 8.89462 42.4841 9.99595C41.4948 11.2466 40.7015 12.572 40.1041 13.972C39.5068 15.3533 39.2081 16.5666 39.2081 17.612C39.2081 18.8813 39.7308 19.516 40.7761 19.516C41.3735 19.516 42.0175 19.1893 42.7081 18.536C43.4175 17.8826 44.0055 17.0613 44.4721 16.072L46.6561 11.368C46.8988 10.8453 47.0201 10.4813 47.0201 10.276Z" fill="black"/>
<path d="M35.7303 9.99595C35.7303 10.444 35.4877 11.2186 35.0023 12.32L32.7343 17.444C32.473 18.0413 32.3423 18.4426 32.3423 18.648C32.3423 19.04 32.557 19.236 32.9863 19.236C33.509 19.236 34.2743 18.8066 35.2823 17.948C35.3757 17.892 35.4503 17.864 35.5063 17.864C35.6183 17.864 35.6743 17.9106 35.6743 18.004C35.6743 18.228 35.3663 18.5546 34.7503 18.984C33.9103 19.5626 33.0143 19.852 32.0623 19.852C31.4837 19.852 31.0077 19.7306 30.6343 19.488C30.261 19.2266 30.0743 18.9 30.0743 18.508C30.0743 18.1906 30.2517 17.6306 30.6063 16.828L32.8463 11.816C33.3877 10.6026 33.6583 9.78129 33.6583 9.35195C33.6583 8.71728 33.3317 8.39995 32.6783 8.39995C31.8197 8.39995 30.8117 9.01595 29.6543 10.248C28.777 11.1813 27.9743 12.488 27.2463 14.168L24.9503 19.488C24.857 19.768 24.7357 19.908 24.5863 19.908C24.549 19.908 24.3437 19.8893 23.9703 19.852C23.9143 19.8333 23.8023 19.824 23.6343 19.824C23.485 19.824 23.233 19.8426 22.8783 19.88C22.8223 19.8986 22.757 19.908 22.6823 19.908C22.5517 19.908 22.4863 19.8613 22.4863 19.768C22.4863 19.7306 22.5143 19.6746 22.5703 19.6L22.7663 19.18L27.0503 8.87595C27.1063 8.78262 27.153 8.69862 27.1903 8.62395C27.1717 8.49329 26.9383 8.41862 26.4903 8.39995C25.9303 8.38128 25.6503 8.27862 25.6503 8.09195C25.6503 7.96128 25.753 7.89595 25.9583 7.89595C26.089 7.89595 26.2943 7.91462 26.5743 7.95195C26.8543 7.98928 27.069 8.00795 27.2183 8.00795C28.2263 8.00795 28.889 7.93328 29.2063 7.78395C29.337 7.72795 29.421 7.69995 29.4583 7.69995C29.5703 7.69995 29.6263 7.75595 29.6263 7.86795C29.6263 7.92395 29.617 7.97062 29.5983 8.00795L28.5623 10.64C28.7117 10.472 28.9263 10.2386 29.2063 9.93995C30.5877 8.48395 31.9223 7.75595 33.2103 7.75595C33.957 7.75595 34.5637 7.97062 35.0303 8.39995C35.497 8.81062 35.7303 9.34262 35.7303 9.99595Z" fill="black"/>
<path d="M25.111 2.71596C25.111 3.49996 24.747 3.89196 24.019 3.89196C23.6457 3.89196 23.3377 3.77996 23.095 3.55596C22.8523 3.3133 22.731 3.01463 22.731 2.65996C22.731 1.89463 23.1603 1.51196 24.019 1.51196C24.747 1.51196 25.111 1.9133 25.111 2.71596ZM23.179 7.95196C23.179 8.00796 23.1323 8.11996 23.039 8.28796C22.9083 8.51196 22.6937 8.9693 22.395 9.65996L19.175 17.024C18.7457 18.0133 18.531 18.6293 18.531 18.872C18.531 19.376 18.7923 19.628 19.315 19.628C19.6697 19.628 20.071 19.5066 20.519 19.264C20.9857 19.0026 21.3403 18.6946 21.583 18.34C21.751 18.116 21.8817 18.004 21.975 18.004C22.087 18.004 22.143 18.06 22.143 18.172C22.143 18.396 21.8817 18.732 21.359 19.18C20.575 19.852 19.6883 20.188 18.699 20.188C18.0457 20.188 17.5043 20.02 17.075 19.684C16.6643 19.348 16.459 18.9186 16.459 18.396C16.459 17.9293 16.6923 17.1733 17.159 16.128L20.071 9.63196C20.1643 9.31463 20.2763 9.07196 20.407 8.90396C20.463 8.8293 20.491 8.76396 20.491 8.70796C20.491 8.53996 20.0803 8.42796 19.259 8.37196C19.1097 8.33463 19.035 8.2693 19.035 8.17596C19.035 8.00796 19.1097 7.92396 19.259 7.92396C19.2777 7.92396 19.4177 7.94263 19.679 7.97996C19.9403 8.0173 20.3603 8.03596 20.939 8.03596C21.723 8.03596 22.2737 7.97063 22.591 7.83996C22.7777 7.7653 22.9083 7.72796 22.983 7.72796C23.1137 7.72796 23.179 7.80263 23.179 7.95196Z" fill="black"/>
<path d="M20.58 0.531938C20.58 0.886605 20.272 2.0066 19.656 3.89194C19.5627 4.0786 19.4693 4.37727 19.376 4.78794C19.2453 5.29194 19.1147 5.54394 18.984 5.54394C18.872 5.54394 18.816 5.46927 18.816 5.31994C18.816 5.09594 18.844 4.88127 18.9 4.67594C19.0493 4.1346 19.124 3.62127 19.124 3.13594C19.124 2.0906 18.8067 1.4466 18.172 1.20394C17.9107 1.1106 17.668 1.0546 17.444 1.03594C17.164 1.01727 16.4453 0.998604 15.288 0.979938C15.008 0.979938 14.7653 0.970604 14.56 0.951938C14.3733 0.951938 14.224 0.951938 14.112 0.951938H13.384C13.216 0.951938 13.0947 0.989271 13.02 1.06394C12.9453 1.1386 12.824 1.38127 12.656 1.79194L9.436 9.60394C9.62267 9.64127 9.81867 9.65994 10.024 9.65994C11.2747 9.65994 12.068 9.61327 12.404 9.51994C13.1693 9.29594 13.8693 8.51194 14.504 7.16794C14.8773 6.38394 15.1293 5.99194 15.26 5.99194C15.3907 5.99194 15.456 6.0386 15.456 6.13194C15.456 6.3186 15.148 7.20527 14.532 8.79194C14.308 9.3706 14.0187 10.1733 13.664 11.1999C13.608 11.3306 13.4867 11.7413 13.3 12.4319C13.0387 13.4399 12.8147 13.9439 12.628 13.9439C12.4973 13.9439 12.432 13.8599 12.432 13.6919C12.432 13.4866 12.488 13.2159 12.6 12.8799C12.6933 12.4693 12.74 12.1146 12.74 11.8159C12.74 10.7146 12.1707 10.1639 11.032 10.1639C10.248 10.1639 9.66 10.1919 9.268 10.2479L6.356 17.7239C6.00133 18.6386 5.824 19.1333 5.824 19.2079C5.824 19.3573 5.98267 19.4319 6.3 19.4319C6.44933 19.4319 7.17733 19.4039 8.484 19.3479C8.68933 19.3479 8.792 19.4319 8.792 19.5999C8.792 19.7866 8.652 19.8799 8.372 19.8799L6.132 19.8239L2.604 19.8519L1.12 19.8239C0.634667 19.8613 0.364 19.8799 0.308 19.8799C0.102667 19.8799 0 19.8053 0 19.6559C0 19.4693 0.130667 19.3759 0.392 19.3759C0.728 19.3759 0.998667 19.3853 1.204 19.4039C1.29733 19.4226 1.39067 19.4319 1.484 19.4319C2.30533 19.4319 2.81867 19.3293 3.024 19.1239C3.11733 19.0306 3.36 18.4986 3.752 17.5279L9.604 2.74394C9.996 1.7546 10.192 1.21327 10.192 1.11994C10.192 0.951937 10.08 0.867937 9.856 0.867937L8.176 0.895937C7.896 0.895937 7.756 0.79327 7.756 0.587937C7.756 0.419937 7.868 0.335938 8.092 0.335938C8.26 0.335938 8.40933 0.34527 8.54 0.363937L10.304 0.419938L16.38 0.447937C16.6227 0.447937 17.08 0.438605 17.752 0.419938C18.3307 0.382604 18.788 0.373271 19.124 0.391938L19.964 0.419938C20.076 0.419938 20.1973 0.410605 20.328 0.391938H20.44C20.5333 0.391938 20.58 0.438605 20.58 0.531938Z" fill="black"/>
</svg>
